{
	"asset":{
		"generator":"Khronos glTF Blender I/O v3.6.28",
		"version":"2.0"
	},
	"scene":0,
	"scenes":[
		{
			"name":"Scene",
			"nodes":[
				4
			]
		}
	],
	"nodes":[
		{
			"mesh":0,
			"name":"Circle",
			"translation":[
				2.5990846157073975,
				0.30070000886917114,
				-2.5990848541259766
			]
		},
		{
			"mesh":1,
			"name":"Circle.002",
			"rotation":[
				1,
				0,
				0,
				0
			],
			"scale":[
				-1,
				-1,
				-1
			],
			"translation":[
				-2.5990846157073975,
				0.30070000886917114,
				-2.5990848541259766
			]
		},
		{
			"mesh":2,
			"name":"Circle.003",
			"rotation":[
				0,
				1,
				0,
				0
			],
			"translation":[
				-2.5990846157073975,
				0.30070000886917114,
				2.5990848541259766
			]
		},
		{
			"mesh":3,
			"name":"Circle.004",
			"rotation":[
				0,
				0,
				-1,
				0
			],
			"scale":[
				-1,
				-1,
				-1
			],
			"translation":[
				2.5990848541259766,
				0.30070000886917114,
				2.5990853309631348
			]
		},
		{
			"children":[
				0,
				1,
				2,
				3
			],
			"mesh":4,
			"name":"Cube"
		}
	],
	"animations":[
		{
			"channels":[
				{
					"sampler":0,
					"target":{
						"node":0,
						"path":"rotation"
					}
				}
			],
			"name":"CircleAction",
			"samplers":[
				{
					"input":26,
					"interpolation":"LINEAR",
					"output":27
				}
			]
		},
		{
			"channels":[
				{
					"sampler":0,
					"target":{
						"node":1,
						"path":"rotation"
					}
				}
			],
			"name":"Circle.002Action",
			"samplers":[
				{
					"input":28,
					"interpolation":"LINEAR",
					"output":29
				}
			]
		},
		{
			"channels":[
				{
					"sampler":0,
					"target":{
						"node":2,
						"path":"rotation"
					}
				}
			],
			"name":"Circle.003Action",
			"samplers":[
				{
					"input":26,
					"interpolation":"LINEAR",
					"output":30
				}
			]
		},
		{
			"channels":[
				{
					"sampler":0,
					"target":{
						"node":3,
						"path":"rotation"
					}
				}
			],
			"name":"Circle.004Action",
			"samplers":[
				{
					"input":26,
					"interpolation":"LINEAR",
					"output":31
				}
			]
		}
	],
	"materials":[
		{
			"doubleSided":true,
			"name":"Material.002",
			"pbrMetallicRoughness":{
				"baseColorFactor":[
					0,
					0.008751127868890762,
					0.049546342343091965,
					1
				],
				"metallicFactor":0,
				"roughnessFactor":0.5
			}
		},
		{
			"doubleSided":true,
			"name":"Material",
			"pbrMetallicRoughness":{
				"baseColorFactor":[
					0.002185567282140255,
					0.01335233449935913,
					0,
					1
				],
				"metallicFactor":0,
				"roughnessFactor":0.5
			}
		},
		{
			"doubleSided":true,
			"name":"Material.003",
			"pbrMetallicRoughness":{
				"baseColorFactor":[
					0,
					0,
					0,
					1
				],
				"metallicFactor":0,
				"roughnessFactor":0.5
			}
		},
		{
			"doubleSided":true,
			"name":"Material.004",
			"pbrMetallicRoughness":{
				"baseColorFactor":[
					0.12823399901390076,
					0,
					0,
					1
				],
				"metallicFactor":0,
				"roughnessFactor":0.5
			}
		}
	],
	"meshes":[
		{
			"name":"Circle",
			"primitives":[
				{
					"attributes":{
						"POSITION":0,
						"NORMAL":1,
						"TEXCOORD_0":2
					},
					"indices":3,
					"material":0
				}
			]
		},
		{
			"name":"Circle.002",
			"primitives":[
				{
					"attributes":{
						"POSITION":4,
						"NORMAL":5,
						"TEXCOORD_0":6
					},
					"indices":3,
					"material":0
				}
			]
		},
		{
			"name":"Circle.003",
			"primitives":[
				{
					"attributes":{
						"POSITION":7,
						"NORMAL":8,
						"TEXCOORD_0":9
					},
					"indices":3,
					"material":0
				}
			]
		},
		{
			"name":"Circle.004",
			"primitives":[
				{
					"attributes":{
						"POSITION":10,
						"NORMAL":11,
						"TEXCOORD_0":12
					},
					"indices":13,
					"material":0
				}
			]
		},
		{
			"name":"Cube",
			"primitives":[
				{
					"attributes":{
						"POSITION":14,
						"NORMAL":15,
						"TEXCOORD_0":16
					},
					"indices":17,
					"material":1
				},
				{
					"attributes":{
						"POSITION":18,
						"NORMAL":19,
						"TEXCOORD_0":20
					},
					"indices":21,
					"material":2
				},
				{
					"attributes":{
						"POSITION":22,
						"NORMAL":23,
						"TEXCOORD_0":24
					},
					"indices":25,
					"material":3
				}
			]
		}
	],
	"accessors":[
		{
			"bufferView":0,
			"componentType":5126,
			"count":42,
			"max":[
				0.955610990524292,
				0.012499988079071045,
				1.097542643547058
			],
			"min":[
				-0.955610990524292,
				-0.012500017881393433,
				-0.557624101638794
			],
			"type":"VEC3"
		},
		{
			"bufferView":1,
			"componentType":5126,
			"count":42,
			"type":"VEC3"
		},
		{
			"bufferView":2,
			"componentType":5126,
			"count":42,
			"type":"VEC2"
		},
		{
			"bufferView":3,
			"componentType":5123,
			"count":240,
			"type":"SCALAR"
		},
		{
			"bufferView":4,
			"componentType":5126,
			"count":42,
			"max":[
				0.955610990524292,
				0.012499988079071045,
				1.097542643547058
			],
			"min":[
				-0.955610990524292,
				-0.012500017881393433,
				-0.557624101638794
			],
			"type":"VEC3"
		},
		{
			"bufferView":5,
			"componentType":5126,
			"count":42,
			"type":"VEC3"
		},
		{
			"bufferView":6,
			"componentType":5126,
			"count":42,
			"type":"VEC2"
		},
		{
			"bufferView":7,
			"componentType":5126,
			"count":42,
			"max":[
				0.955610990524292,
				0.012499988079071045,
				1.097542643547058
			],
			"min":[
				-0.955610990524292,
				-0.012500017881393433,
				-0.557624101638794
			],
			"type":"VEC3"
		},
		{
			"bufferView":8,
			"componentType":5126,
			"count":42,
			"type":"VEC3"
		},
		{
			"bufferView":9,
			"componentType":5126,
			"count":42,
			"type":"VEC2"
		},
		{
			"bufferView":10,
			"componentType":5126,
			"count":650,
			"max":[
				0.9457411766052246,
				0.012249886989593506,
				1.091194987297058
			],
			"min":[
				-0.9457411766052246,
				-0.012249976396560669,
				-0.5504910945892334
			],
			"type":"VEC3"
		},
		{
			"bufferView":11,
			"componentType":5126,
			"count":650,
			"type":"VEC3"
		},
		{
			"bufferView":12,
			"componentType":5126,
			"count":650,
			"type":"VEC2"
		},
		{
			"bufferView":13,
			"componentType":5123,
			"count":3888,
			"type":"SCALAR"
		},
		{
			"bufferView":14,
			"componentType":5126,
			"count":36410,
			"max":[
				2.8676536083221436,
				0.4842000901699066,
				2.8676536083221436
			],
			"min":[
				-2.8676536083221436,
				-1.4238203763961792,
				-2.8676536083221436
			],
			"type":"VEC3"
		},
		{
			"bufferView":15,
			"componentType":5126,
			"count":36410,
			"type":"VEC3"
		},
		{
			"bufferView":16,
			"componentType":5126,
			"count":36410,
			"type":"VEC2"
		},
		{
			"bufferView":17,
			"componentType":5123,
			"count":213468,
			"type":"SCALAR"
		},
		{
			"bufferView":18,
			"componentType":5126,
			"count":1313,
			"max":[
				0.9966409802436829,
				0.1210063099861145,
				0.31323719024658203
			],
			"min":[
				-0.11225259304046631,
				-0.45409634709358215,
				-0.31269708275794983
			],
			"type":"VEC3"
		},
		{
			"bufferView":19,
			"componentType":5126,
			"count":1313,
			"type":"VEC3"
		},
		{
			"bufferView":20,
			"componentType":5126,
			"count":1313,
			"type":"VEC2"
		},
		{
			"bufferView":21,
			"componentType":5123,
			"count":7164,
			"type":"SCALAR"
		},
		{
			"bufferView":22,
			"componentType":5126,
			"count":188,
			"max":[
				0.9667627811431885,
				0.05150780454277992,
				0.08900439739227295
			],
			"min":[
				-0.08900439739227295,
				-0.45409634709358215,
				-0.08900439739227295
			],
			"type":"VEC3"
		},
		{
			"bufferView":23,
			"componentType":5126,
			"count":188,
			"type":"VEC3"
		},
		{
			"bufferView":24,
			"componentType":5126,
			"count":188,
			"type":"VEC2"
		},
		{
			"bufferView":25,
			"componentType":5123,
			"count":936,
			"type":"SCALAR"
		},
		{
			"bufferView":26,
			"componentType":5126,
			"count":1,
			"max":[
				0.03333333333333333
			],
			"min":[
				0.03333333333333333
			],
			"type":"SCALAR"
		},
		{
			"bufferView":27,
			"componentType":5126,
			"count":1,
			"type":"VEC4"
		},
		{
			"bufferView":28,
			"componentType":5126,
			"count":1,
			"max":[
				0.13333333333333333
			],
			"min":[
				0.13333333333333333
			],
			"type":"SCALAR"
		},
		{
			"bufferView":29,
			"componentType":5126,
			"count":1,
			"type":"VEC4"
		},
		{
			"bufferView":30,
			"componentType":5126,
			"count":1,
			"type":"VEC4"
		},
		{
			"bufferView":31,
			"componentType":5126,
			"count":1,
			"type":"VEC4"
		}
	],
	"bufferViews":[
		{
			"buffer":0,
			"byteLength":504,
			"byteOffset":0,
			"target":34962
		},
		{
			"buffer":0,
			"byteLength":504,
			"byteOffset":504,
			"target":34962
		},
		{
			"buffer":0,
			"byteLength":336,
			"byteOffset":1008,
			"target":34962
		},
		{
			"buffer":0,
			"byteLength":480,
			"byteOffset":1344,
			"target":34963
		},
		{
			"buffer":0,
			"byteLength":504,
			"byteOffset":1824,
			"target":34962
		},
		{
			"buffer":0,
			"byteLength":504,
			"byteOffset":2328,
			"target":34962
		},
		{
			"buffer":0,
			"byteLength":336,
			"byteOffset":2832,
			"target":34962
		},
		{
			"buffer":0,
			"byteLength":504,
			"byteOffset":3168,
			"target":34962
		},
		{
			"buffer":0,
			"byteLength":504,
			"byteOffset":3672,
			"target":34962
		},
		{
			"buffer":0,
			"byteLength":336,
			"byteOffset":4176,
			"target":34962
		},
		{
			"buffer":0,
			"byteLength":7800,
			"byteOffset":4512,
			"target":34962
		},
		{
			"buffer":0,
			"byteLength":7800,
			"byteOffset":12312,
			"target":34962
		},
		{
			"buffer":0,
			"byteLength":5200,
			"byteOffset":20112,
			"target":34962
		},
		{
			"buffer":0,
			"byteLength":7776,
			"byteOffset":25312,
			"target":34963
		},
		{
			"buffer":0,
			"byteLength":436920,
			"byteOffset":33088,
			"target":34962
		},
		{
			"buffer":0,
			"byteLength":436920,
			"byteOffset":470008,
			"target":34962
		},
		{
			"buffer":0,
			"byteLength":291280,
			"byteOffset":906928,
			"target":34962
		},
		{
			"buffer":0,
			"byteLength":426936,
			"byteOffset":1198208,
			"target":34963
		},
		{
			"buffer":0,
			"byteLength":15756,
			"byteOffset":1625144,
			"target":34962
		},
		{
			"buffer":0,
			"byteLength":15756,
			"byteOffset":1640900,
			"target":34962
		},
		{
			"buffer":0,
			"byteLength":10504,
			"byteOffset":1656656,
			"target":34962
		},
		{
			"buffer":0,
			"byteLength":14328,
			"byteOffset":1667160,
			"target":34963
		},
		{
			"buffer":0,
			"byteLength":2256,
			"byteOffset":1681488,
			"target":34962
		},
		{
			"buffer":0,
			"byteLength":2256,
			"byteOffset":1683744,
			"target":34962
		},
		{
			"buffer":0,
			"byteLength":1504,
			"byteOffset":1686000,
			"target":34962
		},
		{
			"buffer":0,
			"byteLength":1872,
			"byteOffset":1687504,
			"target":34963
		},
		{
			"buffer":0,
			"byteLength":4,
			"byteOffset":1689376
		},
		{
			"buffer":0,
			"byteLength":16,
			"byteOffset":1689380
		},
		{
			"buffer":0,
			"byteLength":4,
			"byteOffset":1689396
		},
		{
			"buffer":0,
			"byteLength":16,
			"byteOffset":1689400
		},
		{
			"buffer":0,
			"byteLength":16,
			"byteOffset":1689416
		},
		{
			"buffer":0,
			"byteLength":16,
			"byteOffset":1689432
		}
	],
	"buffers":[
		{
			"byteLength":1689448,
			"uri":"data:application/octet-stream;base64,"
		}
	]
}
